<?xml version="1.0" standalone="no"?>
<!DOCTYPE svg PUBLIC "-//W3C//DTD SVG 20010904//EN"
 "http://www.w3.org/TR/2001/REC-SVG-20010904/DTD/svg10.dtd">
<svg version="1.0" xmlns="http://www.w3.org/2000/svg"
 width="100" height="100" viewBox="0 0 300 300"
 preserveAspectRatio="xMidYMid meet">
  <circle cx="150" cy="150" r="150" fill="#ff6b6b"/>
  <g transform="translate(0.000000,300.000000) scale(0.100000,-0.100000)"
    fill="#ffffff" stroke="none">
    <path d="M1225 1888 l-38 -103 63 -190 c35 -104 65 -196 67 -202 4 -10 -28
    -13 -138 -13 l-144 0 -60 -166 -60 -165 -32 6 c-26 5 -33 2 -33 -10 0 -13 17
    -15 105 -15 85 0 105 3 105 15 0 11 -10 13 -50 8 -27 -3 -50 -3 -50 1 0 4 23
    72 52 152 l51 144 136 0 136 0 35 -62 c45 -80 161 -198 226 -231 78 -40 161
    -53 240 -40 130 22 233 97 283 203 38 82 37 186 -4 265 -47 91 -96 120 -318
    186 -77 23 -118 41 -145 65 -34 29 -37 36 -37 82 0 59 24 98 76 124 41 22 117
    23 164 4 52 -22 132 -102 177 -178 22 -37 44 -68 49 -68 11 0 11 81 2 198 -6
    76 -7 81 -23 67 -22 -20 -41 -19 -135 5 -129 33 -236 21 -327 -36 -43 -28 -98
    -98 -98 -126 0 -11 28 -96 62 -190 45 -122 69 -175 85 -185 12 -8 64 -26 115
    -40 173 -47 248 -105 248 -191 0 -52 -71 -102 -145 -102 -59 0 -102 20 -153
    72 -56 56 -83 116 -218 490 l-119 328 -56 0 -56 0 -38 -102z"/>
  </g>
</svg>